<svg xmlns="http://www.w3.org/2000/svg" xmlns:xlink="http://www.w3.org/1999/xlink" width="1366" height="768" viewBox="0 0 1366 768"><defs><style>.a{fill:#fff;}.b{clip-path:url(#a);}.c,.d{fill:none;stroke-linecap:round;stroke-linejoin:round;stroke-width:0.521px;}.c{stroke:#248853;}.d{stroke:#50ad63;}</style><clipPath id="a"><rect class="a" width="1366" height="768" transform="translate(0 -3)"/></clipPath></defs><g transform="translate(0 3)"><rect class="a" width="1366" height="768" transform="translate(0 -3)"/><g class="b"><g transform="translate(308.218 -1763.345)"><line class="c" y2="39.147" transform="translate(597.835 2510.498)"/><path class="d" d="M441.566,2401.089V2251.2a6.716,6.716,0,0,1,6.709-6.724H597.827" transform="translate(0 266.016)"/><path class="d" d="M522,2244.482v-.008H522" transform="translate(75.831 266.016)"/><line class="c" x2="39.059" y2="39.147" transform="translate(597.835 2510.498)"/><line class="c" x1="0.008" y1="0.008" transform="translate(597.827 2510.49)"/><line class="c" y1="39.155" transform="translate(597.827 2510.49)"/><path class="d" d="M582.321,2224.321h.008v.01" transform="translate(132.707 247.015)"/><path class="d" d="M619.092,2224.326v112.4a5.052,5.052,0,0,1-5.045,5.057H501.893" transform="translate(56.878 247.02)"/><line class="c" y1="0.01" transform="translate(675.97 2471.336)"/><path class="d" d="M501.894,2380.935H651.451a6.716,6.716,0,0,0,6.709-6.724V2224.326" transform="translate(56.879 247.02)"/><line class="c" x2="39.059" transform="translate(675.97 2471.336)"/><path class="d" d="M501.892,2341.781v-112.4a5.054,5.054,0,0,1,5.046-5.059H619.085" transform="translate(56.877 247.014)"/><line class="c" y2="39.147" transform="translate(675.97 2432.188)"/><line class="c" x2="0.008" transform="translate(675.962 2471.336)"/><path class="d" d="M481.783,2360.782V2210.889a6.715,6.715,0,0,1,6.709-6.722H638.044" transform="translate(37.917 228.013)"/><path class="d" d="M562.221,2204.175v-.008h-.008" transform="translate(113.749 228.014)"/><line class="c" x2="39.059" y2="39.147" transform="translate(675.97 2432.188)"/><line class="c" x1="0.008" y1="0.008" transform="translate(675.961 2432.181)"/><line class="c" y1="39.155" transform="translate(675.962 2432.181)"/><line class="c" x2="0.008" y2="0.01" transform="translate(715.029 2471.336)"/><line class="c" x2="39.067" transform="translate(675.97 2471.346)"/><path class="c" d="M562.221,2224.331h-.008v-.01" transform="translate(113.749 247.015)"/><path class="d" d="M622.538,2184.013h.008v.011" transform="translate(170.625 209.012)"/><path class="d" d="M659.309,2184.019v112.4a5.053,5.053,0,0,1-5.046,5.057H542.11" transform="translate(94.795 209.017)"/><line class="c" y1="0.01" transform="translate(754.104 2393.025)"/><path class="c" d="M542.109,2244.474v39.155h0" transform="translate(94.794 266.016)"/><path class="d" d="M542.111,2340.629H691.668a6.716,6.716,0,0,0,6.709-6.724V2184.018" transform="translate(94.796 209.016)"/><line class="c" x2="0.004" transform="translate(636.902 2510.49)"/><line class="c" x2="39.059" transform="translate(754.104 2393.025)"/><path class="d" d="M542.109,2301.474v-112.4a5.054,5.054,0,0,1,5.045-5.059H659.3" transform="translate(94.794 209.012)"/><line class="c" y2="39.145" transform="translate(754.104 2353.881)"/><line class="c" x2="0.008" transform="translate(754.096 2393.025)"/><line class="d" transform="translate(597.835 2510.49)"/><line class="c" y2="0.004" transform="translate(597.835 2510.486)"/><line class="c" x1="39.067" transform="translate(597.835 2510.49)"/><path class="d" d="M522,2320.474V2170.582a6.715,6.715,0,0,1,6.709-6.722H678.261" transform="translate(75.835 190.011)"/><line class="c" y2="0.004" transform="translate(636.902 2510.486)"/><path class="d" d="M602.438,2163.87v-.01h-.008" transform="translate(151.666 190.011)"/><line class="c" x2="39.059" y2="39.145" transform="translate(754.104 2353.881)"/><line class="c" x1="0.008" y1="0.01" transform="translate(754.096 2353.871)"/><line class="c" y1="39.155" transform="translate(754.096 2353.871)"/><line class="c" x2="0.008" y2="0.01" transform="translate(793.163 2393.025)"/><line class="c" x2="39.067" transform="translate(754.104 2393.035)"/><path class="c" d="M602.438,2184.023h-.008v-.01" transform="translate(151.666 209.012)"/><line class="c" x2="39.067" transform="translate(597.835 2510.486)"/><line class="c" y2="39.155" transform="translate(636.906 2510.49)"/><path class="c" d="M522,2244.472h0l0,0" transform="translate(75.833 266.014)"/><line class="c" transform="translate(597.835 2510.49)"/><path class="c" d="M522,2244.474l39.069,39.157v0" transform="translate(75.835 266.016)"/><path class="c" d="M542.109,2244.472h0v0" transform="translate(94.794 266.014)"/><path class="d" d="M662.755,2143.707h.008v.01" transform="translate(208.543 171.01)"/><path class="d" d="M699.526,2143.712v112.4a5.053,5.053,0,0,1-5.046,5.057H582.327" transform="translate(132.713 171.015)"/><line class="c" y1="0.01" transform="translate(832.238 2314.716)"/><path class="c" d="M582.326,2204.167v39.155h0" transform="translate(132.711 228.013)"/><path class="d" d="M582.328,2300.322H731.885a6.716,6.716,0,0,0,6.708-6.724V2143.71" transform="translate(132.714 171.014)"/><line class="c" x2="0.004" transform="translate(715.037 2432.18)"/><line class="c" x2="39.059" transform="translate(832.238 2314.716)"/><path class="d" d="M582.326,2261.167v-112.4a5.054,5.054,0,0,1,5.046-5.059H699.519" transform="translate(132.712 171.009)"/><line class="c" y2="39.145" transform="translate(832.238 2275.572)"/><line class="c" x2="0.008" transform="translate(832.231 2314.716)"/><line class="d" transform="translate(675.97 2432.18)"/><line class="c" y2="0.004" transform="translate(675.97 2432.176)"/><line class="c" x1="39.067" transform="translate(675.97 2432.18)"/><path class="d" d="M562.217,2280.168V2130.275a6.716,6.716,0,0,1,6.709-6.722H718.478" transform="translate(113.753 152.009)"/><line class="c" y2="0.004" transform="translate(715.037 2432.176)"/><path class="d" d="M642.655,2123.563v-.01h-.008" transform="translate(189.584 152.009)"/><line class="c" x2="39.059" y2="39.145" transform="translate(832.238 2275.572)"/><line class="c" x1="0.008" y1="0.01" transform="translate(832.23 2275.562)"/><line class="c" y1="39.155" transform="translate(832.231 2275.562)"/><line class="c" x2="0.008" y2="0.01" transform="translate(871.298 2314.716)"/><line class="c" x2="39.067" transform="translate(832.238 2314.726)"/><path class="c" d="M642.655,2143.717h-.008v-.01" transform="translate(189.584 171.01)"/><line class="c" x2="39.067" transform="translate(675.97 2432.176)"/><line class="c" y2="39.155" transform="translate(715.041 2432.18)"/><path class="c" d="M562.219,2204.165h0l0,0" transform="translate(113.751 228.011)"/><line class="c" transform="translate(675.97 2432.18)"/><path class="c" d="M562.217,2204.167l39.069,39.157v0" transform="translate(113.753 228.013)"/><path class="c" d="M582.326,2204.165h0v0" transform="translate(132.711 228.011)"/><path class="d" d="M702.971,2103.4h.01v.01" transform="translate(246.459 133.008)"/><path class="d" d="M739.743,2103.405v112.4a5.052,5.052,0,0,1-5.046,5.057H622.544" transform="translate(170.63 133.012)"/><line class="c" y1="0.01" transform="translate(910.373 2236.407)"/><path class="c" d="M622.542,2163.86v39.155h0" transform="translate(170.629 190.011)"/><path class="d" d="M622.544,2260.015H772.1a6.715,6.715,0,0,0,6.709-6.722V2103.4" transform="translate(170.63 133.012)"/><line class="c" x2="0.004" transform="translate(793.171 2353.871)"/><line class="c" x2="39.057" transform="translate(910.373 2236.407)"/><path class="d" d="M622.543,2220.86v-112.4a5.054,5.054,0,0,1,5.045-5.059H739.736" transform="translate(170.629 133.007)"/><line class="c" y2="39.145" transform="translate(910.373 2197.262)"/><line class="c" x2="0.008" transform="translate(910.365 2236.407)"/><line class="d" transform="translate(754.104 2353.871)"/><line class="c" y2="0.004" transform="translate(754.104 2353.867)"/><line class="c" x1="39.067" transform="translate(754.104 2353.871)"/><path class="d" d="M602.434,2239.86V2089.967a6.714,6.714,0,0,1,6.709-6.721H758.7" transform="translate(151.67 114.008)"/><line class="c" y2="0.004" transform="translate(793.171 2353.867)"/><path class="d" d="M682.872,2083.255v-.009h-.008" transform="translate(227.501 114.008)"/><line class="c" x2="39.057" y2="39.145" transform="translate(910.373 2197.262)"/><line class="c" x1="0.008" y1="0.008" transform="translate(910.365 2197.254)"/><line class="c" y1="39.153" transform="translate(910.365 2197.254)"/><line class="c" x2="0.01" y2="0.01" transform="translate(949.43 2236.407)"/><line class="c" x2="39.067" transform="translate(910.373 2236.417)"/><path class="c" d="M682.872,2103.409h-.008v-.01" transform="translate(227.501 133.008)"/><line class="c" x2="39.067" transform="translate(754.104 2353.867)"/><line class="c" y2="39.155" transform="translate(793.175 2353.871)"/><path class="c" d="M602.436,2163.858h0l0,0" transform="translate(151.668 190.009)"/><line class="c" transform="translate(754.104 2353.871)"/><path class="c" d="M602.434,2163.86l39.069,39.157v0" transform="translate(151.67 190.011)"/><path class="c" d="M622.542,2163.858h0v0" transform="translate(170.629 190.009)"/><path class="d" d="M743.188,2063.094h.01v.008" transform="translate(284.377 95.006)"/><path class="d" d="M779.96,2063.1v112.4a5.052,5.052,0,0,1-5.046,5.057H662.761" transform="translate(208.548 95.01)"/><line class="c" y1="0.008" transform="translate(988.508 2158.099)"/><path class="c" d="M662.76,2123.553v39.155h0" transform="translate(208.546 152.009)"/><path class="d" d="M662.761,2219.708H812.32a6.717,6.717,0,0,0,6.708-6.722V2063.1" transform="translate(208.548 95.009)"/><line class="c" x2="0.004" transform="translate(871.306 2275.562)"/><line class="c" x2="39.057" transform="translate(988.508 2158.099)"/><path class="d" d="M662.759,2180.552v-112.4a5.053,5.053,0,0,1,5.048-5.058H779.954" transform="translate(208.546 95.006)"/><line class="c" y2="39.147" transform="translate(988.508 2118.952)"/><line class="c" x2="0.008" transform="translate(988.5 2158.099)"/><line class="d" transform="translate(832.238 2275.562)"/><line class="c" y2="0.004" transform="translate(832.238 2275.558)"/><line class="c" x1="39.067" transform="translate(832.238 2275.562)"/><path class="d" d="M642.651,2199.553V2049.66a6.714,6.714,0,0,1,6.709-6.721H798.912" transform="translate(189.588 76.005)"/><line class="c" y2="0.004" transform="translate(871.306 2275.558)"/><path class="d" d="M723.089,2042.948v-.008h-.008" transform="translate(265.419 76.005)"/><line class="c" x2="39.057" y2="39.147" transform="translate(988.508 2118.952)"/><line class="c" x1="0.008" y1="0.008" transform="translate(988.499 2118.945)"/><line class="c" y1="39.155" transform="translate(988.5 2118.945)"/><line class="c" x2="0.01" y2="0.008" transform="translate(1027.565 2158.099)"/><line class="c" x2="39.067" transform="translate(988.508 2158.107)"/><path class="c" d="M723.089,2063.1h-.008v-.008" transform="translate(265.419 95.006)"/><line class="c" x2="39.067" transform="translate(832.238 2275.558)"/><line class="c" y2="39.155" transform="translate(871.31 2275.562)"/><path class="c" d="M642.653,2123.551h0l0,0" transform="translate(189.586 152.007)"/><line class="c" transform="translate(832.238 2275.562)"/><path class="c" d="M642.651,2123.553l39.069,39.158v0" transform="translate(189.588 152.009)"/><path class="c" d="M662.76,2123.551h0v0" transform="translate(208.546 152.007)"/><path class="d" d="M820.177,2022.791v112.4a5.054,5.054,0,0,1-5.046,5.059H702.978" transform="translate(246.465 57.008)"/><path class="c" d="M702.976,2083.247V2122.4h0" transform="translate(246.464 114.008)"/><path class="d" d="M702.978,2179.4H852.536a6.716,6.716,0,0,0,6.709-6.722V2022.79" transform="translate(246.465 57.007)"/><line class="c" x2="0.004" transform="translate(949.44 2197.254)"/><path class="d" d="M702.976,2140.245v-112.4a5.051,5.051,0,0,1,5.046-5.057H820.169" transform="translate(246.464 57.003)"/><path class="d" d="M682.868,2083.249h0v0" transform="translate(227.505 114.006)"/><line class="c" y2="0.004" transform="translate(910.373 2197.248)"/><line class="c" x1="39.067" transform="translate(910.373 2197.254)"/><path class="d" d="M682.868,2159.246V2009.353a6.713,6.713,0,0,1,6.707-6.72H839.127" transform="translate(227.505 38.002)"/><line class="c" y2="0.006" transform="translate(949.44 2197.248)"/><line class="c" x2="39.067" transform="translate(910.373 2197.248)"/><line class="c" y2="39.153" transform="translate(949.444 2197.254)"/><path class="c" d="M682.87,2083.244h0l0,0" transform="translate(227.503 114.004)"/><line class="c" y1="0.002" transform="translate(910.373 2197.252)"/><path class="c" d="M682.868,2083.247l39.07,39.155v0" transform="translate(227.505 114.008)"/><path class="c" d="M702.976,2083.244h0v.006" transform="translate(246.464 114.004)"/><path class="d" d="M860.394,1982.483v112.4a5.054,5.054,0,0,1-5.047,5.059H743.195" transform="translate(284.383 19.005)"/><path class="c" d="M743.193,2042.94v39.153h0" transform="translate(284.381 76.005)"/><path class="d" d="M743.195,2139.092H892.752a6.714,6.714,0,0,0,6.709-6.72V1982.483" transform="translate(284.383 19.005)"/><line class="c" x2="0.004" transform="translate(1027.575 2118.945)"/><path class="d" d="M743.193,2099.938v-112.4a5.053,5.053,0,0,1,5.047-5.057H860.386" transform="translate(284.381 19.001)"/><path class="d" d="M723.085,2042.941h0v0" transform="translate(265.423 76.004)"/><line class="c" y2="0.004" transform="translate(988.508 2118.939)"/><line class="c" x1="39.067" transform="translate(988.508 2118.945)"/><path class="d" d="M723.085,2118.939V1969.048a6.713,6.713,0,0,1,6.707-6.722H879.344" transform="translate(265.423 0)"/><line class="c" y2="0.006" transform="translate(1027.575 2118.939)"/><line class="c" x2="39.067" transform="translate(988.508 2118.939)"/><line class="c" y2="39.153" transform="translate(1027.578 2118.945)"/><path class="c" d="M723.087,2042.937h0l0,0" transform="translate(265.421 76.002)"/><line class="c" y1="0.002" transform="translate(988.508 2118.942)"/><path class="c" d="M723.085,2042.94l39.069,39.157v0" transform="translate(265.423 76.005)"/><path class="c" d="M743.193,2042.937h0v.006" transform="translate(284.381 76.002)"/><line class="c" y2="39.147" transform="translate(985.137 2505.998)"/><path class="d" d="M640.917,2398.774V2248.881a6.716,6.716,0,0,1,6.707-6.724H797.176" transform="translate(187.953 263.831)"/><path class="d" d="M721.354,2242.166v-.008h-.008" transform="translate(263.783 263.832)"/><line class="c" x2="39.059" y2="39.147" transform="translate(985.137 2505.998)"/><line class="c" x1="0.008" y1="0.008" transform="translate(985.129 2505.99)"/><line class="c" y1="39.155" transform="translate(985.129 2505.99)"/><path class="d" d="M818.441,2222.008v112.4a5.052,5.052,0,0,1-5.046,5.057H701.244" transform="translate(244.831 244.834)"/><path class="d" d="M701.245,2378.619H850.8a6.713,6.713,0,0,0,6.707-6.722V2222.008" transform="translate(244.831 244.834)"/><path class="d" d="M701.243,2339.465v-112.4a5.053,5.053,0,0,1,5.046-5.059H818.434" transform="translate(244.83 244.83)"/><path class="d" d="M681.134,2358.466V2208.574a6.715,6.715,0,0,1,6.707-6.724H837.393" transform="translate(225.87 225.829)"/><path class="d" d="M858.658,2181.7v112.4a5.051,5.051,0,0,1-5.046,5.057H741.461" transform="translate(282.748 206.833)"/><path class="c" d="M741.46,2242.158v39.155h0" transform="translate(282.747 263.832)"/><path class="d" d="M741.462,2338.311H891.019a6.714,6.714,0,0,0,6.707-6.722V2181.7" transform="translate(282.749 206.833)"/><line class="c" x2="0.004" transform="translate(1024.206 2505.99)"/><path class="d" d="M741.46,2299.158v-112.4a5.053,5.053,0,0,1,5.045-5.06H858.651" transform="translate(282.747 206.828)"/><line class="d" x1="0.002" transform="translate(985.137 2505.99)"/><line class="c" y2="0.004" transform="translate(985.137 2505.985)"/><line class="c" x1="39.067" transform="translate(985.139 2505.99)"/><path class="d" d="M721.35,2318.16V2168.267a6.717,6.717,0,0,1,6.709-6.724H877.609" transform="translate(263.787 187.826)"/><line class="c" y2="0.004" transform="translate(1024.206 2505.985)"/><line class="c" x2="39.067" transform="translate(985.137 2505.985)"/><line class="c" y2="39.155" transform="translate(1024.21 2505.99)"/><path class="c" d="M721.352,2242.155h0l0,0" transform="translate(263.785 263.83)"/><line class="c" x1="0.002" transform="translate(985.137 2505.99)"/><path class="c" d="M721.351,2242.158l39.069,39.156v0" transform="translate(263.788 263.832)"/><path class="c" d="M741.46,2242.155h0v0" transform="translate(282.747 263.83)"/></g><g transform="translate(-119.215 -184.019)"><line class="c" y1="23.106" transform="translate(345.881 69.329)"/><path class="d" d="M533.8,2244.474v88.47a3.964,3.964,0,0,1-3.96,3.969H441.566" transform="translate(-95.68 -2244.474)"/><path class="d" d="M522,2244.474v0h0" transform="translate(-176.115 -2152.04)"/><line class="c" x1="23.054" y1="23.106" transform="translate(322.827 69.329)"/><line class="c" x2="0.005" y2="0.005" transform="translate(345.881 92.434)"/><line class="c" y2="23.11" transform="translate(345.885 69.329)"/><path class="d" d="M582.326,2224.327h0v-.006" transform="translate(-305.617 -2108.777)"/><path class="d" d="M501.893,2293.652v-66.341a2.982,2.982,0,0,1,2.978-2.985h66.2" transform="translate(-202.13 -2178.109)"/><line class="c" y2="0.006" transform="translate(299.763 115.543)"/><path class="d" d="M594.127,2224.326H505.854a3.964,3.964,0,0,0-3.96,3.969v88.467" transform="translate(-225.19 -2201.218)"/><line class="c" x1="23.054" transform="translate(276.709 115.549)"/><path class="d" d="M571.063,2224.32v66.344a2.983,2.983,0,0,1-2.978,2.986H501.892" transform="translate(-202.124 -2178.099)"/><line class="c" y1="23.106" transform="translate(299.763 115.55)"/><line class="c" x1="0.005" transform="translate(299.763 115.549)"/><path class="d" d="M574.013,2204.167v88.472a3.964,3.964,0,0,1-3.96,3.968H481.783" transform="translate(-182.015 -2157.946)"/><path class="d" d="M562.213,2204.167v0h0" transform="translate(-262.45 -2065.512)"/><line class="c" x1="23.054" y1="23.106" transform="translate(276.709 115.55)"/><line class="c" x2="0.005" y2="0.005" transform="translate(299.763 138.655)"/><line class="c" y2="23.11" transform="translate(299.768 115.549)"/><line class="c" x1="0.005" y1="0.006" transform="translate(276.704 115.543)"/><line class="c" x1="23.059" transform="translate(276.704 115.543)"/><path class="c" d="M562.213,2224.321h0v.006" transform="translate(-262.45 -2108.777)"/><path class="d" d="M622.543,2184.02h0v-.006" transform="translate(-391.951 -2022.249)"/><path class="d" d="M542.11,2253.344V2187a2.982,2.982,0,0,1,2.978-2.985h66.2" transform="translate(-288.464 -2091.58)"/><line class="c" y2="0.006" transform="translate(253.646 161.765)"/><path class="c" d="M542.111,2267.585v-23.111h0" transform="translate(-219.289 -2175.146)"/><path class="d" d="M634.344,2184.018H546.071a3.964,3.964,0,0,0-3.96,3.969v88.468" transform="translate(-311.525 -2114.69)"/><line class="c" x1="0.002" transform="translate(322.82 92.439)"/><line class="c" x1="23.054" transform="translate(230.592 161.771)"/><path class="d" d="M611.28,2184.013v66.343a2.983,2.983,0,0,1-2.978,2.986H542.109" transform="translate(-288.459 -2091.571)"/><line class="c" y1="23.105" transform="translate(253.646 161.77)"/><line class="c" x1="0.005" transform="translate(253.646 161.771)"/><line class="d" transform="translate(345.881 92.439)"/><line class="c" y1="0.002" transform="translate(345.881 92.439)"/><line class="c" x2="23.059" transform="translate(322.822 92.439)"/><path class="d" d="M614.23,2163.86v88.471a3.963,3.963,0,0,1-3.96,3.968H522" transform="translate(-268.35 -2071.418)"/><line class="c" y1="0.002" transform="translate(322.822 92.439)"/><path class="d" d="M602.43,2163.86v.006h0" transform="translate(-348.784 -1978.985)"/><line class="c" x1="23.054" y1="23.105" transform="translate(230.592 161.77)"/><line class="c" x2="0.005" y2="0.006" transform="translate(253.646 184.875)"/><line class="c" y2="23.11" transform="translate(253.65 161.77)"/><line class="c" x1="0.005" y1="0.006" transform="translate(230.587 161.765)"/><line class="c" x1="23.059" transform="translate(230.587 161.765)"/><path class="c" d="M602.43,2184.013h0v.006" transform="translate(-348.784 -2022.249)"/><line class="c" x1="23.059" transform="translate(322.822 92.442)"/><line class="c" y1="23.11" transform="translate(322.82 69.329)"/><path class="c" d="M522,2244.475h0l0,0" transform="translate(-176.117 -2152.033)"/><line class="c" transform="translate(345.881 92.439)"/><path class="c" d="M545.06,2267.586,522,2244.474h0" transform="translate(-199.179 -2175.147)"/><path class="c" d="M542.111,2244.475h0v0" transform="translate(-219.289 -2152.033)"/><path class="d" d="M662.76,2143.712h0v-.006" transform="translate(-478.286 -1935.721)"/><path class="d" d="M582.327,2213.037V2146.7a2.982,2.982,0,0,1,2.978-2.985h66.2" transform="translate(-374.799 -2005.052)"/><line class="c" y2="0.006" transform="translate(207.528 207.985)"/><path class="c" d="M582.328,2227.277v-23.11h0" transform="translate(-305.623 -2088.617)"/><path class="d" d="M674.561,2143.71H586.288a3.964,3.964,0,0,0-3.96,3.969v88.469" transform="translate(-397.859 -2028.161)"/><line class="c" x1="0.002" transform="translate(276.702 138.66)"/><line class="c" x1="23.054" transform="translate(184.474 207.991)"/><path class="d" d="M651.5,2143.706v66.344a2.983,2.983,0,0,1-2.978,2.986H582.326" transform="translate(-374.793 -2005.044)"/><line class="c" y1="23.105" transform="translate(207.528 207.991)"/><line class="c" x1="0.005" transform="translate(207.528 207.991)"/><line class="d" transform="translate(299.763 138.66)"/><line class="c" y1="0.002" transform="translate(299.763 138.66)"/><line class="c" x2="23.059" transform="translate(276.704 138.66)"/><path class="d" d="M654.448,2123.553v88.472a3.964,3.964,0,0,1-3.96,3.968H562.217" transform="translate(-354.684 -1984.891)"/><line class="c" y1="0.002" transform="translate(276.704 138.66)"/><path class="d" d="M642.647,2123.552v.006h0" transform="translate(-435.119 -1892.457)"/><line class="c" x1="23.054" y1="23.105" transform="translate(184.474 207.991)"/><line class="c" x2="0.005" y2="0.006" transform="translate(207.528 231.096)"/><line class="c" y2="23.11" transform="translate(207.533 207.991)"/><line class="c" x1="0.005" y1="0.006" transform="translate(184.469 207.985)"/><line class="c" x1="23.059" transform="translate(184.469 207.985)"/><path class="c" d="M642.647,2143.706h0v.006" transform="translate(-435.119 -1935.721)"/><line class="c" x1="23.059" transform="translate(276.704 138.663)"/><line class="c" y1="23.11" transform="translate(276.702 115.55)"/><path class="c" d="M562.215,2204.167h0l0,0" transform="translate(-262.452 -2065.505)"/><line class="c" transform="translate(299.763 138.66)"/><path class="c" d="M585.277,2227.279l-23.06-23.112h0" transform="translate(-285.514 -2088.618)"/><path class="c" d="M582.328,2204.167h0v0" transform="translate(-305.623 -2065.505)"/><path class="d" d="M702.977,2103.405h-.006v-.006" transform="translate(-564.62 -1849.193)"/><path class="d" d="M622.544,2172.73v-66.34a2.982,2.982,0,0,1,2.978-2.985h66.2" transform="translate(-461.133 -1918.524)"/><line class="c" y2="0.006" transform="translate(161.411 254.206)"/><path class="c" d="M622.545,2186.971V2163.86h0" transform="translate(-391.958 -2002.09)"/><path class="d" d="M714.778,2103.4H626.5a3.963,3.963,0,0,0-3.96,3.968v88.469" transform="translate(-484.193 -1941.634)"/><line class="c" x1="0.002" transform="translate(230.585 184.881)"/><line class="c" x1="23.053" transform="translate(138.358 254.212)"/><path class="d" d="M691.714,2103.4v66.344a2.983,2.983,0,0,1-2.978,2.986H622.543" transform="translate(-461.128 -1918.516)"/><line class="c" y1="23.105" transform="translate(161.411 254.212)"/><line class="c" x1="0.005" transform="translate(161.411 254.212)"/><line class="d" transform="translate(253.646 184.881)"/><line class="c" y1="0.002" transform="translate(253.646 184.881)"/><line class="c" x2="23.059" transform="translate(230.587 184.881)"/><path class="d" d="M694.665,2083.246v88.471a3.963,3.963,0,0,1-3.96,3.967H602.434" transform="translate(-441.019 -1898.363)"/><line class="c" y1="0.002" transform="translate(230.587 184.881)"/><path class="d" d="M682.864,2083.246v.005h0" transform="translate(-521.453 -1805.93)"/><line class="c" x1="23.053" y1="23.105" transform="translate(138.358 254.212)"/><line class="c" x2="0.005" y2="0.005" transform="translate(161.411 277.316)"/><line class="c" y2="23.109" transform="translate(161.415 254.212)"/><line class="c" x1="0.006" y1="0.006" transform="translate(138.352 254.206)"/><line class="c" x1="23.059" transform="translate(138.352 254.206)"/><path class="c" d="M682.864,2103.4h0v.006" transform="translate(-521.453 -1849.193)"/><line class="c" x1="23.059" transform="translate(230.587 184.883)"/><line class="c" y1="23.11" transform="translate(230.585 161.77)"/><path class="c" d="M602.432,2163.86h0l0,0" transform="translate(-348.786 -1978.977)"/><line class="c" transform="translate(253.646 184.881)"/><path class="c" d="M625.494,2186.972l-23.06-23.112h0" transform="translate(-371.848 -2002.091)"/><path class="c" d="M622.545,2163.86h0v0" transform="translate(-391.958 -1978.977)"/><path class="d" d="M743.194,2063.1h-.006v0" transform="translate(-650.954 -1762.666)"/><path class="d" d="M662.761,2132.422v-66.34a2.982,2.982,0,0,1,2.978-2.985h66.2" transform="translate(-547.468 -1831.996)"/><line class="c" y2="0.005" transform="translate(115.293 300.427)"/><path class="c" d="M662.762,2146.664v-23.111h0" transform="translate(-478.292 -1915.562)"/><path class="d" d="M754.995,2063.1H666.72a3.964,3.964,0,0,0-3.96,3.968v88.469" transform="translate(-570.527 -1855.106)"/><line class="c" x1="0.002" transform="translate(184.467 231.102)"/><line class="c" x1="23.053" transform="translate(92.24 300.432)"/><path class="d" d="M731.931,2063.093v66.343a2.983,2.983,0,0,1-2.979,2.985H662.759" transform="translate(-547.461 -1831.989)"/><line class="c" y1="23.106" transform="translate(115.293 300.432)"/><line class="c" x1="0.005" transform="translate(115.293 300.432)"/><line class="d" transform="translate(207.528 231.102)"/><line class="c" y1="0.002" transform="translate(207.528 231.101)"/><line class="c" x2="23.059" transform="translate(184.469 231.102)"/><path class="d" d="M734.882,2042.939v88.472a3.963,3.963,0,0,1-3.96,3.966H642.651" transform="translate(-527.353 -1811.836)"/><line class="c" y1="0.002" transform="translate(184.469 231.101)"/><path class="d" d="M723.081,2042.94v0h0" transform="translate(-607.788 -1719.402)"/><line class="c" x1="23.053" y1="23.106" transform="translate(92.24 300.432)"/><line class="c" x2="0.005" y2="0.005" transform="translate(115.293 323.537)"/><line class="c" y2="23.11" transform="translate(115.298 300.432)"/><line class="c" x1="0.006" y1="0.005" transform="translate(92.234 300.427)"/><line class="c" x1="23.059" transform="translate(92.234 300.427)"/><path class="c" d="M723.081,2063.093h0v0" transform="translate(-607.788 -1762.666)"/><line class="c" x1="23.059" transform="translate(184.469 231.104)"/><line class="c" y1="23.11" transform="translate(184.467 207.991)"/><path class="c" d="M642.649,2123.553h0l0,0" transform="translate(-435.121 -1892.449)"/><line class="c" transform="translate(207.528 231.102)"/><path class="c" d="M665.711,2146.665l-23.06-23.112v0" transform="translate(-458.183 -1915.563)"/><path class="c" d="M662.762,2123.553h0v0" transform="translate(-478.292 -1892.449)"/><path class="d" d="M702.978,2092.117v-66.34a2.983,2.983,0,0,1,2.978-2.986h66.2" transform="translate(-633.802 -1745.47)"/><path class="c" d="M702.979,2106.356v-23.11h0" transform="translate(-564.627 -1829.035)"/><path class="d" d="M795.212,2022.79H706.938a3.964,3.964,0,0,0-3.96,3.967v88.469" transform="translate(-656.862 -1768.578)"/><line class="c" x1="0.002" transform="translate(138.35 277.321)"/><path class="d" d="M772.147,2022.786v66.343a2.981,2.981,0,0,1-2.978,2.985H702.976" transform="translate(-633.795 -1745.461)"/><path class="d" d="M682.868,2083.245h0v0" transform="translate(-521.457 -1805.925)"/><line class="c" y1="0.002" transform="translate(161.411 277.322)"/><line class="c" x2="23.059" transform="translate(138.352 277.321)"/><path class="d" d="M775.1,2002.633V2091.1a3.962,3.962,0,0,1-3.958,3.966H682.868" transform="translate(-613.687 -1725.308)"/><line class="c" y1="0.004" transform="translate(138.352 277.321)"/><line class="c" x1="23.059" transform="translate(138.352 277.325)"/><line class="c" y1="23.109" transform="translate(138.35 254.212)"/><path class="c" d="M682.866,2083.246h0l0,0" transform="translate(-521.455 -1805.922)"/><line class="c" y2="0.001" transform="translate(161.411 277.321)"/><path class="c" d="M705.928,2106.357l-23.06-23.111h0" transform="translate(-544.517 -1829.036)"/><path class="c" d="M702.979,2083.247h0v0" transform="translate(-564.627 -1805.922)"/><path class="d" d="M743.195,2051.81v-66.341a2.983,2.983,0,0,1,2.979-2.986h66.2" transform="translate(-720.137 -1658.941)"/><path class="c" d="M743.2,2066.049V2042.94h0" transform="translate(-650.961 -1742.507)"/><path class="d" d="M835.428,1982.483H747.155a3.962,3.962,0,0,0-3.96,3.966v88.469" transform="translate(-743.195 -1682.049)"/><line class="c" x1="0.002" transform="translate(92.232 323.542)"/><path class="d" d="M812.364,1982.479v66.343a2.982,2.982,0,0,1-2.979,2.985H743.193" transform="translate(-720.129 -1658.933)"/><path class="d" d="M723.085,2042.939h0" transform="translate(-607.792 -1719.397)"/><line class="c" y1="0.002" transform="translate(115.293 323.543)"/><line class="c" x2="23.059" transform="translate(92.234 323.542)"/><path class="d" d="M815.314,1962.326v88.47a3.963,3.963,0,0,1-3.958,3.968H723.085" transform="translate(-700.021 -1638.78)"/><line class="c" y1="0.004" transform="translate(92.234 323.542)"/><line class="c" x1="23.059" transform="translate(92.234 323.545)"/><line class="c" y1="23.109" transform="translate(92.232 300.433)"/><path class="c" d="M723.083,2042.939h0l0,0" transform="translate(-607.79 -1719.394)"/><line class="c" y2="0.001" transform="translate(115.293 323.542)"/><path class="c" d="M746.145,2066.051l-23.06-23.112v0" transform="translate(-630.852 -1742.509)"/><path class="c" d="M743.2,2042.94h0v0" transform="translate(-650.961 -1719.395)"/><line class="c" y1="23.106" transform="translate(117.282 71.985)"/><path class="d" d="M733.146,2242.157v88.472a3.964,3.964,0,0,1-3.959,3.969H640.917" transform="translate(-523.63 -2239.501)"/><path class="d" d="M721.346,2242.157v0h0" transform="translate(-604.064 -2147.067)"/><line class="c" x1="23.054" y1="23.106" transform="translate(94.228 71.985)"/><line class="c" x2="0.005" y2="0.005" transform="translate(117.282 95.091)"/><line class="c" y2="23.11" transform="translate(117.287 71.985)"/><path class="d" d="M701.244,2291.335v-66.342a2.982,2.982,0,0,1,2.978-2.985h66.2" transform="translate(-630.079 -2173.134)"/><path class="d" d="M793.477,2222.008H705.2a3.962,3.962,0,0,0-3.959,3.968v88.469" transform="translate(-653.139 -2196.243)"/><path class="d" d="M770.413,2222v66.343a2.982,2.982,0,0,1-2.978,2.986H701.243" transform="translate(-630.073 -2173.127)"/><path class="d" d="M773.363,2201.85v88.471a3.963,3.963,0,0,1-3.959,3.969H681.134" transform="translate(-609.964 -2152.973)"/><path class="d" d="M741.461,2251.028v-66.341a2.981,2.981,0,0,1,2.978-2.985h66.2" transform="translate(-716.414 -2086.607)"/><path class="c" d="M741.462,2265.268v-23.11h0" transform="translate(-647.24 -2170.172)"/><path class="d" d="M833.694,2181.7H745.42a3.963,3.963,0,0,0-3.958,3.968v88.469" transform="translate(-739.474 -2109.716)"/><line class="c" x1="0.002" transform="translate(94.22 95.095)"/><path class="d" d="M810.63,2181.7v66.343a2.982,2.982,0,0,1-2.978,2.987H741.46" transform="translate(-716.408 -2086.6)"/><line class="d" x2="0.001" transform="translate(117.281 95.095)"/><line class="c" y1="0.002" transform="translate(117.282 95.096)"/><line class="c" x2="23.059" transform="translate(94.222 95.095)"/><path class="d" d="M813.579,2161.543v88.472a3.965,3.965,0,0,1-3.96,3.969H721.35" transform="translate(-696.297 -2066.446)"/><line class="c" y1="0.002" transform="translate(94.222 95.096)"/><line class="c" x1="23.059" transform="translate(94.224 95.098)"/><line class="c" y1="23.11" transform="translate(94.22 71.985)"/><path class="c" d="M721.348,2242.158h0l0,0" transform="translate(-604.066 -2147.06)"/><line class="c" x2="0.001" transform="translate(117.281 95.095)"/><path class="c" d="M744.411,2265.269l-23.06-23.111h0" transform="translate(-627.13 -2170.173)"/><path class="c" d="M741.462,2242.158h0v0" transform="translate(-647.24 -2147.06)"/></g></g></g></svg>